<?xml version="1.0" encoding="UTF-8"?>
<svg viewBox="0 0 220 33.197" xmlns="http://www.w3.org/2000/svg">
<defs>
<style>.a{fill:#fff;}.b{fill:#e5007e;}.c{fill:#e4007e;}.d{fill:#e3017f;}.e{fill:#e20180;}.f{fill:#e10280;}.g{fill:#e00281;}.h{fill:#df0381;}.i{fill:#de0382;}.j{fill:#dd0483;}.k{fill:#dc0483;}.l{fill:#db0484;}.m{fill:#da0584;}.n{fill:#d90685;}.o{fill:#d80685;}.p{fill:#d70686;}.q{fill:#d60786;}.r{fill:#d50787;}.s{fill:#d40888;}.t{fill:#d30888;}.u{fill:#d20989;}.v{fill:#d10989;}.w{fill:#d1098a;}.x{fill:#d00a8a;}.y{fill:#cf0a8a;}.z{fill:#ce0a8b;}.aa{fill:#cd0b8b;}.ab{fill:#cd0b8c;}.ac{fill:#cc0b8c;}.ad{fill:#cb0c8d;}.ae{fill:#ca0c8d;}.af{fill:#c90d8e;}.ag{fill:#c80d8e;}.ah{fill:#c80d8f;}.ai{fill:#c70e8f;}.aj{fill:#c60e90;}.ak{fill:#c50e90;}.al{fill:#c40f90;}.am{fill:#c40f91;}.an{fill:#c31091;}.ao{fill:#c21092;}.ap{fill:#c11092;}.aq{fill:#c01193;}.ar{fill:#bf1193;}.as{fill:#bf1194;}.at{fill:#be1294;}.au{fill:#bd1295;}.av{fill:#bc1395;}.aw{fill:#bb1395;}.ax{fill:#bb1396;}.ay{fill:#ba1496;}.az{fill:#b91497;}.ba{fill:#b81497;}.bb{fill:#b71598;}.bc{fill:#b61598;}.bd{fill:#b61699;}.be{fill:#b51699;}.bf{fill:#b4169a;}.bg{fill:#b3179a;}.bh{fill:#b2179b;}.bi{fill:#b1189b;}.bj{fill:#b0189c;}.bk{fill:#af189c;}.bl{fill:#ae199d;}.bm{fill:#ad199d;}.bn{fill:#ad1a9e;}.bo{fill:#ac1a9e;}.bp{fill:#ab1a9f;}.bq{fill:#aa1b9f;}.br{fill:#a91ba0;}.bs{fill:#a81ca1;}.bt{fill:#a71ca1;}.bu{fill:#a61da1;}.bv{fill:#a51da2;}.bw{fill:#a41da2;}.bx{fill:#a41ea3;}.by{fill:#a31ea3;}.bz{fill:#a21ea4;}.ca{fill:#a11fa4;}.cb{fill:#a01fa5;}.cc{fill:#a020a5;}.cd{fill:#9f20a6;}.ce{fill:#9e20a6;}.cf{fill:#9d21a7;}.cg{fill:#9c21a7;}.ch{fill:#9b22a8;}.ci{fill:#9a22a8;}.cj{fill:#9922a9;}.ck{fill:#9823a9;}.cl{fill:#9723aa;}.cm{fill:#9724aa;}.cn{fill:#9624ab;}.co{fill:#9524ab;}.cp{fill:#9425ac;}.cq{fill:#9325ac;}.cr{fill:#9325ad;}.cs{fill:#9226ad;}.ct{fill:#9126ad;}.cu{fill:#9027ae;}.cv{fill:#8f27ae;}.cw{fill:#8e27af;}.cx{fill:#8e28af;}.cy{fill:#8d28b0;}.cz{fill:#8c28b0;}.da{fill:#8b29b1;}.db{fill:#8a29b1;}.dc{fill:#8a2ab2;}.dd{fill:#892ab2;}.de{fill:#882ab3;}.df{fill:#872bb3;}.dg{fill:#862bb3;}.dh{fill:#852bb4;}.di{fill:#852cb4;}.dj{fill:#842cb5;}.dk{fill:#832cb5;}.dl{fill:#822db6;}.dm{fill:#812db6;}.dn{fill:#812eb7;}.do{fill:#802eb7;}.dp{fill:#7f2eb8;}.dq{fill:#7e2fb8;}.dr{fill:#7d2fb9;}.ds{fill:#7c2fb9;}.dt{fill:#7c30b9;}.du{fill:#7b30ba;}.dv{fill:#7a31ba;}.dw{fill:#7931bb;}.dx{fill:#7831bb;}.dy{fill:#7832bc;}.dz{fill:#7732bc;}.ea{fill:#7632bd;}.eb{fill:#7533bd;}.ec{fill:#7433be;}.ed{fill:#7434be;}.ee{fill:#7334be;}.ef{fill:#7234bf;}.eg{fill:#7135bf;}.eh{fill:#7035c0;}.ei{fill:#6f35c0;}.ej{fill:#6f36c1;}.ek{fill:#6e36c1;}.el{fill:#6d37c2;}.em{fill:#6c37c2;}.en{fill:#6b37c3;}.eo{fill:#6b38c3;}.ep{fill:#6a38c4;}.eq{fill:#6938c4;}.er{fill:#6839c4;}.es{fill:#6739c5;}.et{fill:#6639c5;}.eu{fill:#663ac6;}.ev{fill:#653ac6;}.ew{fill:#643bc7;}.ex{fill:#633bc7;}.ey{fill:#623bc8;}.ez{fill:#623cc8;}.fa{fill:#613cc9;}.fb{fill:#603cc9;}.fc{fill:#5f3dca;}.fd{fill:#5e3dca;}.fe{fill:#5d3eca;}.ff{fill:#5d3ecb;}.fg{fill:#5c3ecb;}.fh{fill:#5b3fcc;}.fi{fill:#5a3fcc;}.fj{fill:#593fcd;}.fk{fill:#5940cd;}.fl{fill:#5840ce;}.fm{fill:#5741ce;}.fn{fill:#5641cf;}.fo{fill:#5541cf;}.fp{fill:#5442d0;}.fq{fill:#5342d0;}.fr{fill:#5243d1;}.fs{fill:#5143d1;}.ft{fill:#5043d2;}.fu{fill:#5044d2;}.fv{fill:#4f44d3;}.fw{fill:#4e45d3;}.fx{fill:#4d45d4;}.fy{fill:#4c45d4;}.fz{fill:#4c46d5;}.ga{fill:#4b46d5;}.gb{fill:#4a46d6;}.gc{fill:#4947d6;}.gd{fill:#4847d6;}.ge{fill:#4748d7;}.gf{fill:#4648d8;}.gg{fill:#4549d8;}.gh{fill:#4449d9;}.gi{fill:#4349d9;}.gj{fill:#434ada;}.gk{fill:#424ada;}.gl{fill:#414bdb;}.gm{fill:#404bdb;}.gn{fill:#3f4bdc;}.go{fill:#3e4cdc;}.gp{fill:#3d4cdd;}.gq{fill:#3c4ddd;}.gr{fill:#3b4dde;}.gs{fill:#3a4dde;}.gt{fill:#3a4edf;}.gu{fill:#394edf;}.gv{fill:#384fe0;}.gw{fill:#374fe0;}.gx{fill:#364fe1;}.gy{fill:#3550e1;}.gz{fill:#3550e2;}.ha{fill:#3450e2;}.hb{fill:#3351e2;}.hc{fill:#3251e3;}.hd{fill:#3152e3;}.he{fill:#3152e4;}.hf{fill:#3052e4;}.hg{fill:#2f53e5;}.hh{fill:#2e53e5;}.hi{fill:#2d53e6;}.hj{fill:#2c54e6;}.hk{fill:#2c54e7;}.hl{fill:#2b55e7;}.hm{fill:#2a55e7;}.hn{fill:#2955e8;}.ho{fill:#2856e8;}.hp{fill:#2856e9;}.hq{fill:#2756e9;}.hr{fill:#2657ea;}.hs{fill:#2557ea;}.ht{fill:#2458eb;}.hu{fill:#2358eb;}.hv{fill:#2358ec;}.hw{fill:#2259ec;}.hx{fill:#2159ed;}.hy{fill:#2059ed;}.hz{fill:#1f5aed;}.ia{fill:#1f5aee;}.ib{fill:#1e5aee;}.ic{fill:#1d5bef;}.id{fill:#1c5bef;}.ie{fill:#1b5cf0;}.if{fill:#1a5cf1;}.ig{fill:#195df1;}.ih{fill:#185df2;}.ii{fill:#175df2;}.ij{fill:#165ef3;}.ik{fill:#155ff3;}.il{fill:#145ff4;}.im{fill:#135ff4;}.in{fill:#1260f5;}.io{fill:#1160f6;}.ip{fill:#1061f6;}.iq{fill:#0f61f7;}.ir{fill:#0e62f7;}.is{fill:#0d62f8;}.it{fill:#0c63f9;}.iu{fill:#0b63f9;}</style>
</defs>
<g transform="translate(0)">
<path class="a" transform="translate(-141.61 -19.155)" d="M220.482,27.762l-5.6,6.382-2.462-7.211h-4.9a2.445,2.445,0,0,0-2.351,1.807L200.14,47.454h4.842a2.442,2.442,0,0,0,2.351-1.807l2.242-8.365,2.753,7.3h.118l6.685-7.3L216.4,47.451h4.96a2.442,2.442,0,0,0,2.351-1.807l5.024-18.714h-6.423a2.445,2.445,0,0,0-1.833.832Z"/>
<path class="a" transform="translate(-255.83 -19.163)" d="M382.1,26.94H365.03a2.439,2.439,0,0,0-2.351,1.807l-1.07,4h6.041l-3.964,14.718h5a2.442,2.442,0,0,0,2.351-1.8l3.473-12.914h4.166a2.439,2.439,0,0,0,2.351-1.807Z"/>
<path class="a" transform="translate(-298.39 -18.089)" d="M432.166,40.731a3.187,3.187,0,0,1-3.232-3.526c0-2.815,2-5.627,5.071-5.627a3.108,3.108,0,0,1,3.2,2.492l6.126-2.668c-.849-3.638-3.987-5.982-8.412-5.982-8.856,0-13.166,6.8-13.166,12.4,0,5.512,3.987,9,9.734,9a11.135,11.135,0,0,0,9.4-4.484l-4.734-3.749A5.012,5.012,0,0,1,432.166,40.731Z"/>
<path class="a" transform="translate(-344.7 -19.163)" d="m505.36 28.741l-1.469 5.439h-6.28l1.963-7.24h-5a2.442 2.442 0 0 0 -2.351 1.807l-5.022 18.714h5a2.439 2.439 0 0 0 2.351 -1.81l1.469-5.547h6.273l-1.963 7.346h5a2.442 2.442 0 0 0 2.351 -1.807l5.033-18.7h-5a2.442 2.442 0 0 0 -2.355 1.798z"/>
<path class="a" transform="translate(-395.65 -19.205)" d="M569.933,39.635h6.294a2.442,2.442,0,0,0,2.351-1.813l.852-3.129H569.4l.073-.273a2.439,2.439,0,0,1,2.351-1.81h7.022a2.442,2.442,0,0,0,2.351-1.789L582.227,27H566.6a2.442,2.442,0,0,0-2.351,1.807L559.22,47.5H575a2.436,2.436,0,0,0,2.351-1.813l1.014-3.82h-10.9l.123-.441A2.439,2.439,0,0,1,569.933,39.635Z"/>
<path class="a" transform="translate(-440.9 -19.163)" d="M635.453,26.94h-5a2.439,2.439,0,0,0-2.351,1.807L623.08,47.461h14.345a2.439,2.439,0,0,0,2.351-1.8l1.1-4.058h-9.347Z"/>
<path class="a" transform="translate(-478.1 -19.163)" d="m689.98 26.94-5.333 6.86l-1.675-6.861h-7.21l4.017 12.693-2.083 7.828h5a2.445 2.445 0 0 0 2.351 -1.8l0.508-1.9a14.823 14.823 0 0 1 3.1 -5.841l9.447-10.979z"/>
<path class="a" transform="translate(-199.96 -18.809)" d="m296.08 27.486-13.463 19.622h6.135a2.439 2.439 0 0 0 2.057 -1.131l4.114-6.491 3.194-5 0.558 5 0.732 7.622h7.3l-3.1-20.668h-5.518a2.445 2.445 0 0 0 -2.009 1.046z"/>
<circle class="b" transform="translate(23.609)" cx="6.364" cy="6.364" r="6.364"/>
<circle class="c" transform="translate(23.606 .076)" cx="6.35" cy="6.35" r="6.35"/>
<circle class="d" transform="translate(23.603 .153)" cx="6.335" cy="6.335" r="6.335"/>
<circle class="d" transform="translate(23.603 .229)" cx="6.32" cy="6.32" r="6.32"/>
<circle class="e" transform="translate(23.6 .309)" cx="6.306" cy="6.306" r="6.306"/>
<circle class="f" transform="translate(23.597 .385)" cx="6.291" cy="6.291" r="6.291"/>
<circle class="g" transform="translate(23.597 .461)" cx="6.276" cy="6.276" r="6.276"/>
<circle class="h" transform="translate(23.594 .538)" cx="6.261" cy="6.261" r="6.261"/>
<circle class="i" transform="translate(23.591 .617)" cx="6.247" cy="6.247" r="6.247"/>
<circle class="i" transform="translate(23.591 .693)" cx="6.232" cy="6.232" r="6.232"/>
<circle class="j" transform="translate(23.588 .77)" cx="6.217" cy="6.217" r="6.217"/>
<circle class="k" transform="translate(23.586 .846)" cx="6.203" cy="6.203" r="6.203"/>
<circle class="l" transform="translate(23.586 .926)" cx="6.188" cy="6.188" r="6.188"/>
<circle class="m" transform="translate(23.583 1.002)" cx="6.173" cy="6.173" r="6.173"/>
<circle class="m" transform="translate(23.58 1.078)" cx="6.159" cy="6.159" r="6.159"/>
<circle class="n" transform="translate(23.58 1.155)" cx="6.144" cy="6.144" r="6.144"/>
<circle class="o" transform="translate(23.577 1.234)" cx="6.129" cy="6.129" r="6.129"/>
<circle class="p" transform="translate(23.574 1.31)" cx="6.115" cy="6.115" r="6.115"/>
<circle class="q" transform="translate(23.574 1.387)" cx="6.1" cy="6.1" r="6.1"/>
<circle class="r" transform="translate(23.571 1.463)" cx="6.085" cy="6.085" r="6.085"/>
<circle class="r" transform="translate(23.568 1.543)" cx="6.07" cy="6.07" r="6.07"/>
<circle class="s" transform="translate(23.565 1.619)" cx="6.056" cy="6.056" r="6.056"/>
<circle class="t" transform="translate(23.565 1.695)" cx="6.041" cy="6.041" r="6.041"/>
<circle class="u" transform="translate(23.562 1.772)" cx="6.026" cy="6.026" r="6.026"/>
<circle class="v" transform="translate(23.559 1.848)" cx="6.012" cy="6.012" r="6.012"/>
<circle class="w" transform="translate(23.559 1.928)" cx="5.997" cy="5.997" r="5.997"/>
<circle class="x" transform="translate(23.556 2.004)" cx="5.982" cy="5.982" r="5.982"/>
<circle class="y" transform="translate(23.553 2.08)" cx="5.968" cy="5.968" r="5.968"/>
<circle class="z" transform="translate(23.553 2.157)" cx="5.953" cy="5.953" r="5.953"/>
<circle class="aa" transform="translate(23.55 2.236)" cx="5.938" cy="5.938" r="5.938"/>
<circle class="ab" transform="translate(23.547 2.312)" cx="5.924" cy="5.924" r="5.924"/>
<circle class="ac" transform="translate(23.547 2.389)" cx="5.909" cy="5.909" r="5.909"/>
<circle class="ad" transform="translate(23.544 2.465)" cx="5.894" cy="5.894" r="5.894"/>
<circle class="ae" transform="translate(23.541 2.545)" cx="5.879" cy="5.879" r="5.879"/>
<circle class="af" transform="translate(23.541 2.621)" cx="5.865" cy="5.865" r="5.865"/>
<circle class="ag" transform="translate(23.539 2.697)" cx="5.85" cy="5.85" r="5.85"/>
<circle class="ah" transform="translate(23.536 2.774)" cx="5.835" cy="5.835" r="5.835"/>
<circle class="ai" transform="translate(23.533 2.853)" cx="5.821" cy="5.821" r="5.821"/>
<circle class="aj" transform="translate(23.533 2.929)" cx="5.806" cy="5.806" r="5.806"/>
<circle class="ak" transform="translate(23.53 3.006)" cx="5.791" cy="5.791" r="5.791"/>
<circle class="al" transform="translate(23.527 3.082)" cx="5.777" cy="5.777" r="5.777"/>
<circle class="am" transform="translate(23.527 3.162)" cx="5.762" cy="5.762" r="5.762"/>
<circle class="an" transform="translate(23.524 3.238)" cx="5.747" cy="5.747" r="5.747"/>
<circle class="ao" transform="translate(23.521 3.314)" cx="5.733" cy="5.733" r="5.733"/>
<circle class="ap" transform="translate(23.521 3.391)" cx="5.718" cy="5.718" r="5.718"/>
<circle class="aq" transform="translate(23.518 3.47)" cx="5.703" cy="5.703" r="5.703"/>
<circle class="ar" transform="translate(23.515 3.546)" cx="5.689" cy="5.689" r="5.689"/>
<circle class="as" transform="translate(23.515 3.623)" cx="5.674" cy="5.674" r="5.674"/>
<circle class="at" transform="translate(23.512 3.699)" cx="5.659" cy="5.659" r="5.659"/>
<circle class="au" transform="translate(23.509 3.779)" cx="5.644" cy="5.644" r="5.644"/>
<circle class="av" transform="translate(23.509 3.855)" cx="5.63" cy="5.63" r="5.63"/>
<circle class="aw" transform="translate(23.506 3.931)" cx="5.615" cy="5.615" r="5.615"/>
<circle class="ax" transform="translate(23.503 4.008)" cx="5.6" cy="5.6" r="5.6"/>
<circle class="ay" transform="translate(23.503 4.087)" cx="5.586" cy="5.586" r="5.586"/>
<circle class="az" transform="translate(23.5 4.164)" cx="5.571" cy="5.571" r="5.571"/>
<circle class="ba" transform="translate(23.497 4.24)" cx="5.556" cy="5.556" r="5.556"/>
<circle class="bb" transform="translate(23.494 4.316)" cx="5.542" cy="5.542" r="5.542"/>
<circle class="bc" transform="translate(23.494 4.396)" cx="5.527" cy="5.527" r="5.527"/>
<circle class="bd" transform="translate(23.492 4.472)" cx="5.512" cy="5.512" r="5.512"/>
<circle class="be" transform="translate(23.492 4.551)" cx="5.495" cy="5.495" r="5.495"/>
<circle class="bf" transform="translate(23.492 4.628)" cx="5.48" cy="5.48" r="5.48"/>
<circle class="bg" transform="translate(23.489 4.707)" cx="5.465" cy="5.465" r="5.465"/>
<circle class="bh" transform="translate(23.486 4.784)" cx="5.451" cy="5.451" r="5.451"/>
<circle class="bh" transform="translate(23.486 4.86)" cx="5.436" cy="5.436" r="5.436"/>
<circle class="bi" transform="translate(23.483 4.936)" cx="5.421" cy="5.421" r="5.421"/>
<circle class="bj" transform="translate(23.48 4.986)" cx="5.406" cy="5.406" r="5.406"/>
<circle class="bk" transform="translate(23.48 5.061)" cx="5.392" cy="5.392" r="5.392"/>
<circle class="bl" transform="translate(23.477 5.137)" cx="5.377" cy="5.377" r="5.377"/>
<circle class="bm" transform="translate(23.474 5.213)" cx="5.362" cy="5.362" r="5.362"/>
<circle class="bn" transform="translate(23.474 5.289)" cx="5.348" cy="5.348" r="5.348"/>
<circle class="bo" transform="translate(23.471 5.368)" cx="5.333" cy="5.333" r="5.333"/>
<circle class="bp" transform="translate(23.468 5.444)" cx="5.318" cy="5.318" r="5.318"/>
<circle class="bq" transform="translate(23.465 5.52)" cx="5.304" cy="5.304" r="5.304"/>
<circle class="br" transform="translate(23.465 5.596)" cx="5.289" cy="5.289" r="5.289"/>
<circle class="br" transform="translate(23.462 5.675)" cx="5.274" cy="5.274" r="5.274"/>
<circle class="bs" transform="translate(23.459 5.751)" cx="5.26" cy="5.26" r="5.26"/>
<circle class="bt" transform="translate(23.459 5.827)" cx="5.245" cy="5.245" r="5.245"/>
<circle class="bu" transform="translate(23.456 5.903)" cx="5.23" cy="5.23" r="5.23"/>
<circle class="bv" transform="translate(23.453 5.982)" cx="5.215" cy="5.215" r="5.215"/>
<circle class="bw" transform="translate(23.453 6.058)" cx="5.201" cy="5.201" r="5.201"/>
<circle class="bx" transform="translate(23.45 6.134)" cx="5.186" cy="5.186" r="5.186"/>
<circle class="by" transform="translate(23.447 6.21)" cx="5.171" cy="5.171" r="5.171"/>
<circle class="bz" transform="translate(23.447 6.289)" cx="5.157" cy="5.157" r="5.157"/>
<circle class="ca" transform="translate(23.445 6.365)" cx="5.142" cy="5.142" r="5.142"/>
<circle class="cb" transform="translate(23.442 6.441)" cx="5.127" cy="5.127" r="5.127"/>
<circle class="cc" transform="translate(23.442 6.517)" cx="5.113" cy="5.113" r="5.113"/>
<circle class="cd" transform="translate(23.439 6.596)" cx="5.098" cy="5.098" r="5.098"/>
<circle class="ce" transform="translate(23.436 6.672)" cx="5.083" cy="5.083" r="5.083"/>
<circle class="cf" transform="translate(23.436 6.748)" cx="5.069" cy="5.069" r="5.069"/>
<circle class="cg" transform="translate(23.433 6.824)" cx="5.054" cy="5.054" r="5.054"/>
<circle class="cg" transform="translate(23.43 6.903)" cx="5.039" cy="5.039" r="5.039"/>
<circle class="ch" transform="translate(23.427 6.979)" cx="5.024" cy="5.024" r="5.024"/>
<circle class="ci" transform="translate(23.427 7.055)" cx="5.01" cy="5.01" r="5.01"/>
<circle class="cj" transform="translate(23.424 7.131)" cx="4.995" cy="4.995" r="4.995"/>
<circle class="ck" transform="translate(23.421 7.21)" cx="4.98" cy="4.98" r="4.98"/>
<circle class="cl" transform="translate(23.421 7.286)" cx="4.966" cy="4.966" r="4.966"/>
<circle class="cm" transform="translate(23.418 7.362)" cx="4.951" cy="4.951" r="4.951"/>
<circle class="cn" transform="translate(23.415 7.438)" cx="4.936" cy="4.936" r="4.936"/>
<circle class="co" transform="translate(23.415 7.517)" cx="4.922" cy="4.922" r="4.922"/>
<circle class="cp" transform="translate(23.412 7.593)" cx="4.907" cy="4.907" r="4.907"/>
<circle class="cq" transform="translate(23.409 7.669)" cx="4.892" cy="4.892" r="4.892"/>
<circle class="cr" transform="translate(23.409 7.745)" cx="4.878" cy="4.878" r="4.878"/>
<circle class="cs" transform="translate(23.406 7.824)" cx="4.863" cy="4.863" r="4.863"/>
<circle class="ct" transform="translate(23.403 7.9)" cx="4.848" cy="4.848" r="4.848"/>
<circle class="cu" transform="translate(23.403 7.976)" cx="4.833" cy="4.833" r="4.833"/>
<circle class="cv" transform="translate(23.4 8.052)" cx="4.819" cy="4.819" r="4.819"/>
<circle class="cw" transform="translate(23.397 8.131)" cx="4.804" cy="4.804" r="4.804"/>
<circle class="cx" transform="translate(23.395 8.207)" cx="4.789" cy="4.789" r="4.789"/>
<circle class="cy" transform="translate(23.395 8.283)" cx="4.775" cy="4.775" r="4.775"/>
<circle class="cz" transform="translate(23.392 8.359)" cx="4.76" cy="4.76" r="4.76"/>
<circle class="da" transform="translate(23.389 8.438)" cx="4.745" cy="4.745" r="4.745"/>
<circle class="db" transform="translate(23.389 8.514)" cx="4.731" cy="4.731" r="4.731"/>
<circle class="dc" transform="translate(23.386 8.59)" cx="4.716" cy="4.716" r="4.716"/>
<circle class="dd" transform="translate(23.383 8.666)" cx="4.701" cy="4.701" r="4.701"/>
<circle class="de" transform="translate(23.383 8.742)" cx="4.687" cy="4.687" r="4.687"/>
<circle class="df" transform="translate(23.38 8.821)" cx="4.672" cy="4.672" r="4.672"/>
<circle class="dg" transform="translate(23.377 8.897)" cx="4.657" cy="4.657" r="4.657"/>
<circle class="dh" transform="translate(23.377 8.973)" cx="4.642" cy="4.642" r="4.642"/>
<circle class="di" transform="translate(23.374 9.049)" cx="4.628" cy="4.628" r="4.628"/>
<circle class="dj" transform="translate(23.371 9.128)" cx="4.613" cy="4.613" r="4.613"/>
<circle class="dk" transform="translate(23.371 9.204)" cx="4.598" cy="4.598" r="4.598"/>
<circle class="dl" transform="translate(23.368 9.28)" cx="4.584" cy="4.584" r="4.584"/>
<circle class="dm" transform="translate(23.365 9.356)" cx="4.569" cy="4.569" r="4.569"/>
<circle class="dn" transform="translate(23.365 9.435)" cx="4.554" cy="4.554" r="4.554"/>
<circle class="do" transform="translate(23.362 9.511)" cx="4.54" cy="4.54" r="4.54"/>
<circle class="dp" transform="translate(23.359 9.587)" cx="4.525" cy="4.525" r="4.525"/>
<circle class="dq" transform="translate(23.356 9.663)" cx="4.51" cy="4.51" r="4.51"/>
<circle class="dr" transform="translate(23.356 9.742)" cx="4.496" cy="4.496" r="4.496"/>
<circle class="ds" transform="translate(23.356 9.821)" cx="4.478" cy="4.478" r="4.478"/>
<circle class="dt" transform="translate(23.353 9.897)" cx="4.463" cy="4.463" r="4.463"/>
<circle class="du" transform="translate(23.353 9.973)" cx="4.449" cy="4.449" r="4.449"/>
<circle class="dv" transform="translate(23.35 10.052)" cx="4.434" cy="4.434" r="4.434"/>
<circle class="dw" transform="translate(23.348 10.128)" cx="4.419" cy="4.419" r="4.419"/>
<circle class="dx" transform="translate(23.348 10.204)" cx="4.404" cy="4.404" r="4.404"/>
<circle class="dy" transform="translate(23.345 10.28)" cx="4.39" cy="4.39" r="4.39"/>
<circle class="dz" transform="translate(23.342 10.359)" cx="4.375" cy="4.375" r="4.375"/>
<circle class="ea" transform="translate(23.342 10.435)" cx="4.36" cy="4.36" r="4.36"/>
<circle class="eb" transform="translate(23.339 10.511)" cx="4.346" cy="4.346" r="4.346"/>
<circle class="ec" transform="translate(23.336 10.587)" cx="4.331" cy="4.331" r="4.331"/>
<circle class="ed" transform="translate(23.336 10.666)" cx="4.316" cy="4.316" r="4.316"/>
<circle class="ee" transform="translate(23.333 10.742)" cx="4.302" cy="4.302" r="4.302"/>
<circle class="ef" transform="translate(23.33 10.818)" cx="4.287" cy="4.287" r="4.287"/>
<circle class="eg" transform="translate(23.33 10.894)" cx="4.272" cy="4.272" r="4.272"/>
<circle class="eh" transform="translate(23.327 10.973)" cx="4.258" cy="4.258" r="4.258"/>
<circle class="ei" transform="translate(23.324 11.049)" cx="4.243" cy="4.243" r="4.243"/>
<circle class="ej" transform="translate(23.321 11.125)" cx="4.228" cy="4.228" r="4.228"/>
<circle class="ek" transform="translate(23.321 11.201)" cx="4.213" cy="4.213" r="4.213"/>
<circle class="el" transform="translate(23.318 11.28)" cx="4.199" cy="4.199" r="4.199"/>
<circle class="em" transform="translate(23.315 11.356)" cx="4.184" cy="4.184" r="4.184"/>
<circle class="en" transform="translate(23.315 11.432)" cx="4.169" cy="4.169" r="4.169"/>
<circle class="eo" transform="translate(23.312 11.508)" cx="4.155" cy="4.155" r="4.155"/>
<circle class="ep" transform="translate(23.309 11.587)" cx="4.14" cy="4.14" r="4.14"/>
<circle class="eq" transform="translate(23.309 11.663)" cx="4.125" cy="4.125" r="4.125"/>
<circle class="er" transform="translate(23.306 11.739)" cx="4.111" cy="4.111" r="4.111"/>
<circle class="es" transform="translate(23.303 11.816)" cx="4.096" cy="4.096" r="4.096"/>
<circle class="et" transform="translate(23.303 11.894)" cx="4.081" cy="4.081" r="4.081"/>
<circle class="eu" transform="translate(23.301 11.971)" cx="4.067" cy="4.067" r="4.067"/>
<circle class="ev" transform="translate(23.298 12.047)" cx="4.052" cy="4.052" r="4.052"/>
<circle class="ew" transform="translate(23.298 12.123)" cx="4.037" cy="4.037" r="4.037"/>
<circle class="ex" transform="translate(23.295 12.202)" cx="4.023" cy="4.023" r="4.023"/>
<circle class="ey" transform="translate(23.292 12.278)" cx="4.008" cy="4.008" r="4.008"/>
<circle class="ez" transform="translate(23.289 12.354)" cx="3.993" cy="3.993" r="3.993"/>
<circle class="fa" transform="translate(23.289 12.43)" cx="3.978" cy="3.978" r="3.978"/>
<circle class="fb" transform="translate(23.286 12.506)" cx="3.964" cy="3.964" r="3.964"/>
<circle class="fc" transform="translate(23.283 12.585)" cx="3.949" cy="3.949" r="3.949"/>
<circle class="fd" transform="translate(23.283 12.661)" cx="3.934" cy="3.934" r="3.934"/>
<circle class="fe" transform="translate(23.28 12.737)" cx="3.92" cy="3.92" r="3.92"/>
<circle class="ff" transform="translate(23.277 12.813)" cx="3.905" cy="3.905" r="3.905"/>
<circle class="fg" transform="translate(23.277 12.892)" cx="3.89" cy="3.89" r="3.89"/>
<circle class="fh" transform="translate(23.274 12.968)" cx="3.876" cy="3.876" r="3.876"/>
<circle class="fi" transform="translate(23.271 13.044)" cx="3.861" cy="3.861" r="3.861"/>
<circle class="fj" transform="translate(23.271 13.12)" cx="3.846" cy="3.846" r="3.846"/>
<circle class="fk" transform="translate(23.268 13.199)" cx="3.832" cy="3.832" r="3.832"/>
<circle class="fl" transform="translate(23.265 13.275)" cx="3.817" cy="3.817" r="3.817"/>
<circle class="fm" transform="translate(23.265 13.351)" cx="3.802" cy="3.802" r="3.802"/>
<circle class="fn" transform="translate(23.262 13.428)" cx="3.787" cy="3.787" r="3.787"/>
<circle class="fo" transform="translate(23.259 13.507)" cx="3.773" cy="3.773" r="3.773"/>
<circle class="fp" transform="translate(23.259 13.583)" cx="3.758" cy="3.758" r="3.758"/>
<circle class="fp" transform="translate(23.256 13.659)" cx="3.743" cy="3.743" r="3.743"/>
<circle class="fq" transform="translate(23.254 13.735)" cx="3.729" cy="3.729" r="3.729"/>
<circle class="fr" transform="translate(23.251 13.814)" cx="3.714" cy="3.714" r="3.714"/>
<circle class="fs" transform="translate(23.251 13.89)" cx="3.699" cy="3.699" r="3.699"/>
<circle class="ft" transform="translate(23.248 13.966)" cx="3.685" cy="3.685" r="3.685"/>
<circle class="fu" transform="translate(23.245 14.042)" cx="3.67" cy="3.67" r="3.67"/>
<circle class="fv" transform="translate(23.245 14.121)" cx="3.655" cy="3.655" r="3.655"/>
<circle class="fw" transform="translate(23.242 14.197)" cx="3.641" cy="3.641" r="3.641"/>
<circle class="fx" transform="translate(23.239 14.273)" cx="3.626" cy="3.626" r="3.626"/>
<circle class="fy" transform="translate(23.239 14.349)" cx="3.611" cy="3.611" r="3.611"/>
<circle class="fz" transform="translate(23.236 14.428)" cx="3.596" cy="3.596" r="3.596"/>
<circle class="ga" transform="translate(23.233 14.504)" cx="3.582" cy="3.582" r="3.582"/>
<circle class="gb" transform="translate(23.233 14.58)" cx="3.567" cy="3.567" r="3.567"/>
<circle class="gc" transform="translate(23.23 14.657)" cx="3.552" cy="3.552" r="3.552"/>
<circle class="gd" transform="translate(23.227 14.736)" cx="3.538" cy="3.538" r="3.538"/>
<circle class="ge" transform="translate(23.227 14.812)" cx="3.523" cy="3.523" r="3.523"/>
<circle class="ge" transform="translate(23.224 14.888)" cx="3.508" cy="3.508" r="3.508"/>
<circle class="gf" transform="translate(23.221 14.964)" cx="3.494" cy="3.494" r="3.494"/>
<circle class="gg" transform="translate(23.221 15.046)" cx="3.476" cy="3.476" r="3.476"/>
<circle class="gh" transform="translate(23.221 15.122)" cx="3.461" cy="3.461" r="3.461"/>
<circle class="gi" transform="translate(23.218 15.198)" cx="3.447" cy="3.447" r="3.447"/>
<circle class="gj" transform="translate(23.215 15.274)" cx="3.432" cy="3.432" r="3.432"/>
<circle class="gk" transform="translate(23.215 15.353)" cx="3.417" cy="3.417" r="3.417"/>
<circle class="gl" transform="translate(23.212 15.429)" cx="3.403" cy="3.403" r="3.403"/>
<circle class="gm" transform="translate(23.209 15.505)" cx="3.388" cy="3.388" r="3.388"/>
<circle class="gn" transform="translate(23.209 15.581)" cx="3.373" cy="3.373" r="3.373"/>
<circle class="go" transform="translate(23.207 15.66)" cx="3.358" cy="3.358" r="3.358"/>
<circle class="go" transform="translate(23.204 15.736)" cx="3.344" cy="3.344" r="3.344"/>
<circle class="gp" transform="translate(23.204 15.813)" cx="3.329" cy="3.329" r="3.329"/>
<circle class="gq" transform="translate(23.201 15.889)" cx="3.314" cy="3.314" r="3.314"/>
<circle class="gr" transform="translate(23.198 15.965)" cx="3.3" cy="3.3" r="3.3"/>
<circle class="gs" transform="translate(23.198 16.044)" cx="3.285" cy="3.285" r="3.285"/>
<circle class="gt" transform="translate(23.195 16.12)" cx="3.27" cy="3.27" r="3.27"/>
<circle class="gu" transform="translate(23.192 16.196)" cx="3.256" cy="3.256" r="3.256"/>
<circle class="gv" transform="translate(23.192 16.272)" cx="3.241" cy="3.241" r="3.241"/>
<circle class="gw" transform="translate(23.189 16.351)" cx="3.226" cy="3.226" r="3.226"/>
<circle class="gx" transform="translate(23.186 16.427)" cx="3.212" cy="3.212" r="3.212"/>
<circle class="gy" transform="translate(23.183 16.503)" cx="3.197" cy="3.197" r="3.197"/>
<circle class="gz" transform="translate(23.183 16.579)" cx="3.182" cy="3.182" r="3.182"/>
<circle class="ha" transform="translate(23.18 16.658)" cx="3.167" cy="3.167" r="3.167"/>
<circle class="hb" transform="translate(23.177 16.734)" cx="3.153" cy="3.153" r="3.153"/>
<circle class="hc" transform="translate(23.177 16.811)" cx="3.138" cy="3.138" r="3.138"/>
<circle class="hd" transform="translate(23.174 16.887)" cx="3.123" cy="3.123" r="3.123"/>
<circle class="he" transform="translate(23.171 16.966)" cx="3.109" cy="3.109" r="3.109"/>
<circle class="hf" transform="translate(23.171 17.042)" cx="3.094" cy="3.094" r="3.094"/>
<circle class="hg" transform="translate(23.168 17.118)" cx="3.079" cy="3.079" r="3.079"/>
<circle class="hh" transform="translate(23.165 17.194)" cx="3.065" cy="3.065" r="3.065"/>
<circle class="hi" transform="translate(23.165 17.273)" cx="3.05" cy="3.05" r="3.05"/>
<circle class="hj" transform="translate(23.162 17.349)" cx="3.035" cy="3.035" r="3.035"/>
<circle class="hk" transform="translate(23.159 17.425)" cx="3.021" cy="3.021" r="3.021"/>
<circle class="hl" transform="translate(23.159 17.501)" cx="3.006" cy="3.006" r="3.006"/>
<circle class="hm" transform="translate(23.157 17.58)" cx="2.991" cy="2.991" r="2.991"/>
<circle class="hn" transform="translate(23.154 17.657)" cx="2.976" cy="2.976" r="2.976"/>
<circle class="ho" transform="translate(23.151 17.733)" cx="2.962" cy="2.962" r="2.962"/>
<circle class="hp" transform="translate(23.151 17.809)" cx="2.947" cy="2.947" r="2.947"/>
<circle class="hq" transform="translate(23.148 17.888)" cx="2.932" cy="2.932" r="2.932"/>
<circle class="hr" transform="translate(23.145 17.964)" cx="2.918" cy="2.918" r="2.918"/>
<circle class="hs" transform="translate(23.145 18.04)" cx="2.903" cy="2.903" r="2.903"/>
<circle class="ht" transform="translate(23.142 18.116)" cx="2.888" cy="2.888" r="2.888"/>
<circle class="hu" transform="translate(23.139 18.195)" cx="2.874" cy="2.874" r="2.874"/>
<circle class="hv" transform="translate(23.139 18.271)" cx="2.859" cy="2.859" r="2.859"/>
<circle class="hw" transform="translate(23.136 18.347)" cx="2.844" cy="2.844" r="2.844"/>
<circle class="hx" transform="translate(23.133 18.424)" cx="2.83" cy="2.83" r="2.83"/>
<circle class="hy" transform="translate(23.133 18.503)" cx="2.815" cy="2.815" r="2.815"/>
<circle class="hz" transform="translate(23.13 18.579)" cx="2.8" cy="2.8" r="2.8"/>
<circle class="ia" transform="translate(23.127 18.655)" cx="2.785" cy="2.785" r="2.785"/>
<circle class="ib" transform="translate(23.127 18.731)" cx="2.771" cy="2.771" r="2.771"/>
<circle class="ic" transform="translate(23.124 18.81)" cx="2.756" cy="2.756" r="2.756"/>
<circle class="id" transform="translate(23.121 18.886)" cx="2.741" cy="2.741" r="2.741"/>
<circle class="ie" transform="translate(23.121 18.962)" cx="2.727" cy="2.727" r="2.727"/>
<circle class="ie" transform="translate(23.118 19.038)" cx="2.712" cy="2.712" r="2.712"/>
<circle class="if" transform="translate(23.115 19.117)" cx="2.697" cy="2.697" r="2.697"/>
<circle class="ig" transform="translate(23.112 19.194)" cx="2.683" cy="2.683" r="2.683"/>
<circle class="ih" transform="translate(23.112 19.27)" cx="2.668" cy="2.668" r="2.668"/>
<circle class="ii" transform="translate(23.11 19.346)" cx="2.653" cy="2.653" r="2.653"/>
<circle class="ij" transform="translate(23.107 19.422)" cx="2.639" cy="2.639" r="2.639"/>
<circle class="ij" transform="translate(23.107 19.501)" cx="2.624" cy="2.624" r="2.624"/>
<circle class="ik" transform="translate(23.104 19.577)" cx="2.609" cy="2.609" r="2.609"/>
<circle class="il" transform="translate(23.101 19.653)" cx="2.594" cy="2.594" r="2.594"/>
<circle class="im" transform="translate(23.101 19.729)" cx="2.58" cy="2.58" r="2.58"/>
<circle class="in" transform="translate(23.098 19.808)" cx="2.565" cy="2.565" r="2.565"/>
<circle class="in" transform="translate(23.095 19.885)" cx="2.55" cy="2.55" r="2.55"/>
<circle class="io" transform="translate(23.095 19.961)" cx="2.536" cy="2.536" r="2.536"/>
<circle class="ip" transform="translate(23.092 20.037)" cx="2.521" cy="2.521" r="2.521"/>
<circle class="iq" transform="translate(23.089 20.116)" cx="2.506" cy="2.506" r="2.506"/>
<circle class="ir" transform="translate(23.089 20.192)" cx="2.492" cy="2.492" r="2.492"/>
<circle class="is" transform="translate(23.089 20.271)" cx="2.474" cy="2.474" r="2.474"/>
<circle class="is" transform="translate(23.086 20.347)" cx="2.459" cy="2.459" r="2.459"/>
<circle class="it" transform="translate(23.086 20.426)" cx="2.445" cy="2.445" r="2.445"/>
<circle class="iu" transform="translate(23.083 20.502)" cx="2.43" cy="2.43" r="2.43"/>
<path class="b" transform="translate(-84.734 -7.234)" d="m127.36 40.431h-7.587l7.64-28.374a2.46 2.46 0 0 1 2.377 -1.817h8.738l-7.36 27.295a3.932 3.932 0 0 1 -3.808 2.896z"/>
<path class="iu" transform="translate(0 -7.234)" d="M7.587,40.431H0L7.64,12.057a2.46,2.46,0,0,1,2.377-1.817h8.727L11.4,37.535a3.932,3.932,0,0,1-3.811,2.9Z"/>
</g>
</svg>
